<svg width="200" height="200" viewBox="0 0 200 200" fill="none" xmlns="http://www.w3.org/2000/svg">
<rect width="200" height="200" rx="25" fill="white"/>
<path d="M45.2519 119.54C42.8519 119.54 40.6169 119.105 38.5469 118.235C36.4769 117.365 34.6619 116.15 33.1019 114.59C31.5419 113.03 30.3269 111.2 29.4569 109.1C28.5869 107 28.1519 104.705 28.1519 102.215C28.1519 99.725 28.5719 97.43 29.4119 95.33C30.2519 93.2 31.4369 91.37 32.9669 89.84C34.4969 88.28 36.2819 87.08 38.3219 86.24C40.3919 85.37 42.6419 84.935 45.0719 84.935C47.5019 84.935 49.6769 85.34 51.5969 86.15C53.5469 86.96 55.1969 88.04 56.5469 89.39C57.8969 90.74 58.8569 92.24 59.4269 93.89L53.2619 96.86C52.6919 95.24 51.6869 93.905 50.2469 92.855C48.8369 91.775 47.1119 91.235 45.0719 91.235C43.0919 91.235 41.3519 91.7 39.8519 92.63C38.3519 93.56 37.1819 94.85 36.3419 96.5C35.5319 98.12 35.1269 100.025 35.1269 102.215C35.1269 104.405 35.5619 106.325 36.4319 107.975C37.3019 109.625 38.4869 110.915 39.9869 111.845C41.5169 112.775 43.2719 113.24 45.2519 113.24C46.7819 113.24 48.2069 112.955 49.5269 112.385C50.8769 111.785 51.9569 110.93 52.7669 109.82C53.6069 108.71 54.0269 107.375 54.0269 105.815V103.025L57.2219 105.725H45.0719V99.875H61.0019V103.43C61.0019 106.16 60.5519 108.545 59.6519 110.585C58.7519 112.595 57.5369 114.275 56.0069 115.625C54.5069 116.945 52.8119 117.935 50.9219 118.595C49.0619 119.225 47.1719 119.54 45.2519 119.54ZM76.6489 119.54C74.0389 119.54 71.7739 118.97 69.8539 117.83C67.9339 116.66 66.4489 115.1 65.3989 113.15C64.3489 111.2 63.8239 109.04 63.8239 106.67C63.8239 104.21 64.3639 102.02 65.4439 100.1C66.5539 98.18 68.0389 96.665 69.8989 95.555C71.7589 94.445 73.8589 93.89 76.1989 93.89C78.1489 93.89 79.8739 94.205 81.3739 94.835C82.8739 95.435 84.1339 96.29 85.1539 97.4C86.2039 98.51 86.9989 99.8 87.5389 101.27C88.0789 102.71 88.3489 104.285 88.3489 105.995C88.3489 106.475 88.3189 106.955 88.2589 107.435C88.2289 107.885 88.1539 108.275 88.0339 108.605H69.6289V103.655H84.2089L81.0139 105.995C81.3139 104.705 81.2989 103.565 80.9689 102.575C80.6389 101.555 80.0539 100.76 79.2139 100.19C78.4039 99.59 77.3989 99.29 76.1989 99.29C75.0289 99.29 74.0239 99.575 73.1839 100.145C72.3439 100.715 71.7139 101.555 71.2939 102.665C70.8739 103.775 70.7089 105.125 70.7989 106.715C70.6789 108.095 70.8439 109.31 71.2939 110.36C71.7439 111.41 72.4339 112.235 73.3639 112.835C74.2939 113.405 75.4189 113.69 76.7389 113.69C77.9389 113.69 78.9589 113.45 79.7989 112.97C80.6689 112.49 81.3439 111.83 81.8239 110.99L87.2239 113.555C86.7439 114.755 85.9789 115.805 84.9289 116.705C83.9089 117.605 82.6939 118.31 81.2839 118.82C79.8739 119.3 78.3289 119.54 76.6489 119.54ZM92.3236 119V94.43H98.6236V99.29L98.2636 98.21C98.8336 96.74 99.7486 95.66 101.009 94.97C102.299 94.25 103.799 93.89 105.509 93.89C107.369 93.89 108.989 94.28 110.369 95.06C111.779 95.84 112.874 96.935 113.654 98.345C114.434 99.725 114.824 101.345 114.824 103.205V119H108.074V104.645C108.074 103.685 107.879 102.86 107.489 102.17C107.129 101.48 106.604 100.94 105.914 100.55C105.254 100.16 104.474 99.965 103.574 99.965C102.704 99.965 101.924 100.16 101.234 100.55C100.544 100.94 100.004 101.48 99.6136 102.17C99.2536 102.86 99.0736 103.685 99.0736 104.645V119H92.3236ZM119.757 119V85.475H142.707V91.55H126.732V100.055H140.457V106.13H126.732V119H119.757ZM145.673 119V94.43H152.423V119H145.673ZM145.673 92.225V85.475H152.423V92.225H145.673ZM169.198 119.27C166.228 119.27 163.918 118.475 162.268 116.885C160.648 115.265 159.838 113.015 159.838 110.135V100.28H155.698V94.43H155.923C157.183 94.43 158.143 94.115 158.803 93.485C159.493 92.855 159.838 91.91 159.838 90.65V88.85H166.588V94.43H172.348V100.28H166.588V109.685C166.588 110.525 166.738 111.23 167.038 111.8C167.338 112.34 167.803 112.745 168.433 113.015C169.063 113.285 169.843 113.42 170.773 113.42C170.983 113.42 171.223 113.405 171.493 113.375C171.763 113.345 172.048 113.315 172.348 113.285V119C171.898 119.06 171.388 119.12 170.818 119.18C170.248 119.24 169.708 119.27 169.198 119.27Z" fill="#0166ED"/>
<path d="M167.047 85V79.88H165.463V79.04H169.543V79.88H167.983V85H167.047ZM170.249 85V79.04H171.129L173.369 82.144H172.929L175.129 79.04H176.009V85H175.073V80.152L175.425 80.248L173.177 83.32H173.081L170.881 80.248L171.193 80.152V85H170.249Z" fill="#0166ED"/>
</svg>
